# xmcd
#
# Track frame offsets:
#	150
#	17662
#	33037
#	52949
#	73911
#	87973
#	112948
#	132523
#
# Disc length: 2104 seconds
#
# Revision: 0
# Processed by: cddbd v1.5.2PL0 Copyright (c) Steve Scherf et al.
# Submitted via: EZCDAudioConverter 5.0.3.2
#
DISCID=60083608
DTITLE=Jackson Emmer - Last Known Photograph of Jackson Emmer 
DYEAR=2015
DGENRE=Country
TTITLE0=Hands 
TTITLE1=Six Four Time
TTITLE2=Score
TTITLE3=Rock The Simple Cradle
TTITLE4=Living On The Cheap
TTITLE5=Glow 
TTITLE6=Rocky Winds Blow
TTITLE7=Texas Last
EXTD=
EXTT0=
EXTT1=
EXTT2=
EXTT3=
EXTT4=
EXTT5=
EXTT6=
EXTT7=
PLAYORDER=
